<?xml version="1.0" encoding="utf-8" ?>
<svg baseProfile="full" height="150" version="1.1" width="150" xmlns="http://www.w3.org/2000/svg" xmlns:ev="http://www.w3.org/2001/xml-events" xmlns:xlink="http://www.w3.org/1999/xlink"><defs /><rect fill="#e0e0e0" height="100" rx="5" ry="5" width="110" x="20" y="30" /><rect fill="#f0f0f0" height="100" rx="5" ry="5" width="110" x="15" y="20" /><rect fill="white" height="100" rx="5" ry="5" stroke="#d0d0d0" stroke-width="1" width="110" x="10" y="10" /><rect fill="#4a90e2" height="10" rx="2" ry="2" width="70" x="20" y="20" /><line stroke="#d0d0d0" stroke-width="1" x1="20" x2="100" y1="40" y2="40" /><line stroke="#d0d0d0" stroke-width="1" x1="20" x2="100" y1="55" y2="55" /><line stroke="#d0d0d0" stroke-width="1" x1="20" x2="100" y1="70" y2="70" /><line stroke="#d0d0d0" stroke-width="1" x1="20" x2="100" y1="85" y2="85" /><path d="M100,5 L110,5 L110,20 L100,20 Z" fill="#a0a0a0" /><circle cx="30" cy="30" fill="green" r="15" /><path d="M23,30 L26,33 L32,27" fill="none" stroke="white" stroke-width="2" /><circle cx="120" cy="120" fill="#4a90e2" r="15" /><text dominant-baseline="central" fill="white" font-family="Arial, sans-serif" font-size="16px" text-anchor="middle" x="120" y="120">3</text></svg>